<?xml version="1.0" standalone="no"?>
<!DOCTYPE svg PUBLIC "-//W3C//DTD SVG 20010904//EN"
 "http://www.w3.org/TR/2001/REC-SVG-20010904/DTD/svg10.dtd">
<svg version="1.0" xmlns="http://www.w3.org/2000/svg"
 width="1024.000000pt" height="1024.000000pt" viewBox="0 0 1024.000000 1024.000000"
 preserveAspectRatio="xMidYMid meet">

<g transform="translate(0.000000,1024.000000) scale(0.100000,-0.100000)"
fill="#ffffff" stroke="none">
<path d="M5520 7930 l0 -291 -57 3 -58 3 -3 153 -3 152 -74 0 -75 0 0 -153 0
-154 -112 -12 c-569 -60 -945 -231 -1307 -592 -193 -192 -332 -369 -641 -814
-300 -431 -443 -611 -627 -785 -231 -219 -449 -338 -777 -423 l-90 -23 170
-106 c683 -427 1551 -794 2250 -952 313 -70 519 -96 819 -103 368 -8 612 25
903 122 624 208 1100 665 1302 1250 67 195 90 329 97 552 8 259 -22 476 -92
683 -22 64 -23 71 -7 66 86 -31 422 -172 422 -177 0 -3 -63 -81 -141 -173
l-141 -168 43 -36 c23 -20 50 -43 60 -50 16 -11 40 14 229 239 116 138 210
253 207 255 -2 2 -179 75 -392 162 l-389 158 -65 107 c-254 413 -670 691
-1168 780 l-123 22 0 298 0 297 -80 0 -80 0 0 -290z m55 -450 c382 -36 697
-162 966 -386 456 -379 661 -1122 482 -1744 -209 -729 -856 -1247 -1681 -1349
-656 -81 -1512 99 -2437 514 -232 104 -689 338 -804 412 -23 15 -22 15 54 48
180 78 356 200 527 364 193 185 313 335 638 801 117 168 249 352 293 410 386
505 715 750 1152 859 282 71 555 95 810 71z"/>
<path d="M6164 6739 c-64 -18 -127 -71 -157 -131 -90 -176 31 -377 228 -378
198 0 320 202 229 381 -53 106 -185 162 -300 128z m147 -178 c41 -41 41 -98 0
-143 -25 -28 -36 -33 -76 -33 -40 0 -51 5 -76 33 -63 71 -17 171 79 172 35 0
49 -6 73 -29z"/>
<path d="M4848 6520 c-245 -42 -457 -190 -556 -391 -103 -209 -183 -551 -231
-984 -25 -228 -35 -375 -26 -375 4 0 100 16 214 35 523 87 972 197 1169 286
179 80 295 218 348 409 27 99 25 299 -4 410 -61 225 -202 412 -393 519 -148
83 -354 119 -521 91z m287 -166 c235 -57 417 -246 479 -495 20 -81 21 -245 1
-318 -34 -131 -110 -229 -221 -288 -158 -84 -566 -190 -1086 -282 l-108 -18 0
31 c0 102 57 487 100 676 65 287 134 444 235 538 163 153 380 209 600 156z"/>
<path d="M5520 2920 l0 -830 -285 0 -285 0 0 785 0 785 -80 0 -80 0 0 -785 0
-785 -140 0 -140 0 0 -75 0 -75 820 0 820 0 0 75 0 75 -232 2 -233 3 -3 828
-2 827 -80 0 -80 0 0 -830z"/>
</g>
</svg>
