<?xml version="1.0" encoding="utf-8"?>
<svg version="1.0" width="1280.000000pt" height="382.000000pt" viewBox="0 0 1280.000000 382.000000" preserveAspectRatio="xMidYMid meet" xmlns="http://www.w3.org/2000/svg">
  <g transform="translate(0.000000,382.000000) scale(0.100000,-0.100000)" fill="#000000" stroke="none">
    <path d="M5330 1950 l0 -1870 385 0 385 0 0 539 c0 354 3 542 10 546 22 13 285 7 360 -9 235 -50 409 -214 495 -466 45 -132 75 -340 75 -521 l0 -89 386 0 387 0 -6 242 c-6 251 -20 368 -66 545 -45 175 -121 347 -212 479 -59 85 -191 215 -278 274 -81 54 -226 122 -313 146 -38 10 -68 21 -68 25 0 3 236 286 525 630 288 343 524 627 525 632 0 4 -213 7 -474 7 l-474 0 -403 -517 c-222 -285 -414 -529 -426 -543 l-22 -25 -1 923 0 922 -395 0 -395 0 0 -1870z" style="fill: rgb(216, 29, 153);"/>
    <path d="M11454 3468 c3 -172 8 -727 12 -1233 6 -986 9 -1046 58 -1228 114 -418 394 -743 764 -888 136 -53 250 -78 395 -86 l118 -6 -6 344 c-3 189 -8 372 -11 405 l-5 62 -59 11 c-188 37 -337 190 -411 422 l-29 89 0 445 0 445 260 0 260 0 0 405 0 405 -270 0 -270 0 0 360 0 360 -406 0 -406 0 6 -312z" style="fill: rgb(216, 29, 153);"/>
    <path d="M4730 3125 c-632 -92 -1010 -420 -1154 -1000 -48 -196 -50 -218 -53 -1157 l-4 -888 410 0 410 0 4 918 c2 794 5 924 18 967 61 194 181 276 442 300 l67 7 -5 251 c-12 545 -16 617 -34 616 -9 -1 -54 -7 -101 -14z" style="fill: rgb(216, 29, 153);"/>
    <path d="M1407 3100 c-260 -25 -503 -112 -728 -261 -130 -86 -324 -282 -412 -414 -354 -535 -352 -1199 4 -1735 84 -127 282 -325 409 -409 408 -271 886 -339 1341 -191 146 48 263 103 376 179 345 231 575 571 665 985 19 86 22 132 22 306 0 231 -14 321 -80 511 -169 489 -581 864 -1083 989 -152 38 -361 54 -514 40z m296 -786 c368 -83 621 -449 577 -836 -37 -324 -266 -592 -569 -665 -89 -21 -248 -21 -331 1 -253 66 -442 247 -532 507 -30 88 -32 103 -32 234 -1 158 12 222 69 342 83 176 216 307 385 378 131 55 295 70 433 39z" style="fill: rgb(216, 29, 153);"/>
    <path d="M8770 3043 c-173 -7 -348 -15 -387 -19 l-73 -6 1 -356 c1 -197 5 -634 9 -972 8 -663 8 -667 67 -840 165 -490 650 -823 1233 -847 493 -20 929 188 1177 560 80 119 134 241 175 396 l31 116 8 490 c4 270 7 707 8 971 l1 482 -162 6 c-90 3 -275 8 -412 11 l-248 6 6 -333 c3 -183 7 -556 8 -828 3 -532 2 -539 -51 -694 -67 -193 -206 -337 -374 -388 -54 -16 -87 -20 -162 -16 -85 3 -100 7 -178 46 -148 73 -251 207 -314 407 l-28 90 -3 860 c-1 473 -6 862 -10 865 -4 3 -149 0 -322 -7z" style="fill: rgb(216, 29, 153);"/>
  </g>
</svg>